<?xml version="1.0" standalone="no"?>
<!DOCTYPE svg PUBLIC "-//W3C//DTD SVG 20010904//EN"
 "http://www.w3.org/TR/2001/REC-SVG-20010904/DTD/svg10.dtd">
<svg version="1.0" xmlns="http://www.w3.org/2000/svg"
 width="225.000000pt" height="225.000000pt" viewBox="0 0 225.000000 225.000000"
 preserveAspectRatio="xMidYMid meet">

<g transform="translate(0.000000,225.000000) scale(0.100000,-0.100000)"
fill="#000000" stroke="none">
<path d="M958 2235 c-317 -50 -600 -233 -775 -502 -95 -145 -153 -311 -174
-498 -28 -238 38 -509 174 -718 178 -273 459 -453 784 -502 123 -19 193 -19
313 -1 502 76 880 454 956 956 7 52 14 122 14 155 0 98 -27 249 -65 362 -171
510 -696 830 -1227 748z m-2 -637 l15 -33 154 0 154 0 15 33 c15 31 18 32 54
26 77 -13 227 -68 248 -91 29 -31 117 -212 144 -293 32 -100 50 -222 50 -341
l0 -108 -46 -31 c-50 -35 -234 -125 -276 -135 -24 -6 -29 -2 -56 45 -17 29
-28 58 -26 65 3 6 25 21 51 34 74 36 37 42 -59 10 -163 -55 -342 -55 -503 -1
-98 33 -137 27 -62 -9 26 -13 48 -28 51 -34 2 -7 -9 -36 -26 -65 -27 -47 -32
-51 -56 -45 -41 10 -201 88 -265 128 l-57 37 0 116 c0 200 53 390 159 572 40
69 42 70 113 96 82 30 164 54 191 55 10 1 24 -12 33 -31z"/>
<path d="M842 1184 c-31 -21 -52 -66 -52 -109 0 -74 47 -125 115 -125 49 0 83
22 101 66 39 94 -10 184 -101 184 -22 0 -51 -7 -63 -16z"/>
<path d="M1282 1184 c-31 -21 -52 -66 -52 -109 0 -74 47 -125 115 -125 68 0
115 51 115 125 0 74 -47 125 -115 125 -22 0 -51 -7 -63 -16z"/>
</g>
</svg>
